<?xml version="1.0" ?><svg style="enable-background:new 0 0 128 128;" version="1.1" viewBox="0 0 128 128" xml:space="preserve" xmlns="http://www.w3.org/2000/svg" xmlns:xlink="http://www.w3.org/1999/xlink"><style type="text/css">
	.st0{fill:none;stroke:#000000;stroke-width:8;stroke-miterlimit:10;}
	.st1{display:none;}
	.st2{display:inline;opacity:0.25;fill:#F45EFD;}
</style><g id="_x31_2_3D_Printing"/><g id="_x31_1_VR_Gear"/><g id="_x31_0_Virtual_reality"/><g id="_x39__Augmented_reality"><g><polygon points="80,104 68,104 68,92 60,92 60,104 48,104 48,92 40,92 40,112 88,112 88,92 80,92   "/><path d="M112,24H91.3c-1.7-4.7-6.1-8-11.3-8s-9.6,3.3-11.3,8H16c-4.4,0-8,3.6-8,8v48c0,4.4,3.6,8,8,8h96c4.4,0,8-3.6,8-8V32    C120,27.6,116.4,24,112,24z M60,80H48V56h12V80z M68,72h12v8H68V72z M68,64V48H40v32h-8V32h36.8c1.8,5.1,5.9,11.3,7.9,14.3L80,51    l3.3-4.8c2-2.9,6.1-9.2,7.9-14.3H96v48h-8V64H68z M80,24c2.2,0,4,1.8,4,4c0,1.2-1.7,4.7-4,8.6c-2.3-3.9-4-7.4-4-8.6    C76,25.8,77.8,24,80,24z M16,32h8v48h-8V32z M112,80h-8V32h8V80z"/></g></g><g id="_x38__Teleport"/><g id="_x37__Glassess"/><g id="_x36__Folding_phone"/><g id="_x35__Drone"/><g id="_x34__Retina_scan"/><g id="_x33__Smartwatch"/><g id="_x32__Bionic_Arm"/><g id="_x31__Chip"/><g class="st1" id="Guide"><path class="st2" d="M120,8v112H8V8H120 M128,0H0v128h128V0L128,0z"/></g></svg>