<svg xmlns="http://www.w3.org/2000/svg" xmlns:xlink="http://www.w3.org/1999/xlink" width="32" height="32" viewBox="0 0 32 32">
    <defs>
        <path id="a" d="M4.907 9C4.407 9 4 8.553 4 8.002 4 7.45 4.407 7 4.907 7h22.189c.5 0 .904.45.904 1.002 0 .551-.404.998-.904.998H4.906zm0 8c-.5 0-.907-.447-.907-.998C4 15.45 4.407 15 4.907 15h22.189c.5 0 .904.45.904 1.002 0 .551-.404.998-.904.998H4.906zm.006 8C4.41 25 4 24.553 4 24.002 4 23.45 4.41 23 4.913 23H19.09c.503 0 .91.45.91 1.002 0 .551-.407.998-.91.998H4.913z"/>
    </defs>
    <use fill="#000" fill-rule="nonzero" xlink:href="#a"/>
</svg>
