<?xml version="1.0" encoding="utf-8"?>
<!-- Svg Vector Icons : http://www.onlinewebfonts.com/icon -->
<!DOCTYPE svg PUBLIC "-//W3C//DTD SVG 1.1//EN" "http://www.w3.org/Graphics/SVG/1.1/DTD/svg11.dtd">
<svg version="1.1" xmlns="http://www.w3.org/2000/svg" xmlns:xlink="http://www.w3.org/1999/xlink" x="0px" y="0px" viewBox="0 0 1000 1000" enable-background="new 0 0 1000 1000" xml:space="preserve">
<metadata> Svg Vector Icons : http://www.onlinewebfonts.com/icon </metadata>
<g><path d="M698.7,554.7h114c17.1,0,36.6,12.3,44,27.8l0,0L637,621.3C657.8,598,678.7,576.3,698.7,554.7L698.7,554.7z M310,554.7H190.7l0,0L383.4,666l22.7-4C374.7,622.3,341.1,588.4,310,554.7z M541,757l245.5,141.7H969c17.2,0,25.5-12.7,18.4-28.4L876.7,626.6l0,0L591.1,677C573.1,701.1,556.1,727.4,541,757z M496.6,803.6l164.8,95.1l0,0H31c-17.3,0-25.6-12.7-18.4-28.4l45.1-99.2l0,0l293.1-51.7l138.7,80.1C491.6,801.3,494,802.7,496.6,803.6z M81.2,719.3l56-123.2l150.3,86.8L81.2,719.3L81.2,719.3z"/><path d="M514.8,698.7c-5.5,13.5-24.5,13.4-30-0.1C423.7,549,300.6,508,277.1,374.7c-23.2-131.2,67.8-259.8,200.7-272.3c135.1-12.8,248.8,93,248.8,225.3C726.6,500.4,582.6,532.7,514.8,698.7z M619.6,327.6c0-66-53.6-119.5-119.7-119.5c-66.1,0-119.7,53.5-119.7,119.5c0,66,53.6,119.5,119.7,119.5C566,447.2,619.6,393.7,619.6,327.6L619.6,327.6z"/></g>
</svg>