<?xml version="1.0" standalone="no"?><!DOCTYPE svg PUBLIC "-//W3C//DTD SVG 1.1//EN" "http://www.w3.org/Graphics/SVG/1.1/DTD/svg11.dtd"><svg class="icon" height="512" viewBox="0 0 1024 1024" version="1.1" xmlns="http://www.w3.org/2000/svg"><path d="M504 32c-190.4 0-312 153.6-312 344s265.6 464 312 464 312-273.6 312-464-121.6-344-312-344zM504 480c-75.2 0-136-60.8-136-136s60.8-136 136-136 136 60.8 136 136-60.8 136-136 136zM264 728c-113.6 24-184 62.4-184 120 0 89.6 192 144 432 144s432-54.4 432-144c0-59.2-75.2-99.2-196.8-123.2-17.6-3.2-33.6 8-36.8 25.6-3.2 17.6 8 33.6 25.6 36.8 91.2 17.6 145.6 46.4 145.6 60.8 0 3.2-4.8 8-17.6 17.6-17.6 11.2-43.2 22.4-76.8 32-72 20.8-169.6 32-273.6 32s-203.2-11.2-273.6-32c-33.6-9.6-59.2-20.8-76.8-32-14.4-9.6-19.2-14.4-19.2-17.6 0-12.8 49.6-40 132.8-57.6 17.6-3.2 28.8-20.8 24-38.4-1.6-17.6-19.2-28.8-36.8-24z" /></svg>