<?xml version="1.0" encoding="iso-8859-1"?>
<!-- Generator: Adobe Illustrator 16.0.0, SVG Export Plug-In . SVG Version: 6.00 Build 0)  -->
<!DOCTYPE svg PUBLIC "-//W3C//DTD SVG 1.1//EN" "http://www.w3.org/Graphics/SVG/1.1/DTD/svg11.dtd">
<svg version="1.1" id="Capa_1" xmlns="http://www.w3.org/2000/svg" xmlns:xlink="http://www.w3.org/1999/xlink" x="0px" y="0px"
	 width="575.284px" height="575.285px" viewBox="0 0 575.284 575.285" style="enable-background:new 0 0 575.284 575.285;"
	 xml:space="preserve">
<g>
	<g>
		<path d="M167.295,287.88c-0.771,0.673-1.224,1.653-1.224,2.693V395.25c0,1.53,0.979,2.876,2.424,3.366l67.883,22.632
			c0.367,0.122,0.747,0.184,1.126,0.184c0.734,0,1.469-0.233,2.069-0.674c0.93-0.673,1.481-1.738,1.481-2.876V300.513
			c0-1.763-1.285-3.256-3.036-3.514l-67.883-9.939C169.119,286.901,168.079,287.208,167.295,287.88z"/>
		<path d="M132.387,281.589l-47.846-6.977c-1.016-0.159-2.057,0.159-2.828,0.82c-0.783,0.673-1.224,1.652-1.224,2.692v88.582
			c0,1.53,0.979,2.877,2.424,3.366l47.846,15.948c0.368,0.123,0.747,0.184,1.114,0.184c0.734,0,1.469-0.232,2.081-0.673
			c0.918-0.673,1.469-1.738,1.469-2.876V285.09C135.422,283.327,134.137,281.834,132.387,281.589z"/>
		<path d="M573.174,203.669L424.678,4.843c0,0-1.419-2.24-4.7-3.55c-3.28-1.322-6.475-0.392-6.475-0.392L180.184,60.694V40.057
			c0-4.957-3.415-9.253-8.237-10.379l-19.499-4.504c0,0-1.261-0.343-3.036-0.245c-1.774,0.098-2.913,0.575-2.913,0.575
			l-35.166,12.46c-4.247,1.505-7.087,5.52-7.087,10.024v32.179l-36.928,9.449c-2.975,0.771-5.472,2.778-6.867,5.52L1.15,212.666
			c-1.653,3.268-1.518,7.148,0.367,10.282c1.885,3.133,5.251,5.08,8.911,5.166l28.103,0.587v208.558
			c0,3.978,2.203,7.613,5.728,9.437L287.92,573.489c0,0,2.118,1.176,4.896,1.212c2.778,0.024,4.921-1.212,4.921-1.212
			l236.098-122.963c3.513-1.836,5.716-5.459,5.728-9.437l0.416-222.096l23.917,1.652c0,0,6.255,0.71,9.78-5.018
			C577.568,209.361,573.174,203.669,573.174,203.669z M282.205,546.512L59.828,430.795V229.141l177.468,3.733c0,0,0,0,0.012,0h0.024
			l44.884,0.808v312.831H282.205z M530.102,196.986c-2.95-0.208-5.839,0.82-7.993,2.828c-2.154,2.007-3.378,4.834-3.391,7.772
			l-0.416,227.041l-60.942,31.751V269.606c0-1.004-0.417-1.946-1.151-2.62s-1.701-1.003-2.692-0.918l-58.63,4.872
			c-1.836,0.159-3.256,1.701-3.256,3.537v226.11L303.478,546.5V223.229c0-5.814-4.651-10.539-10.453-10.649l-32.901-0.6
			L415.62,28.307l126.611,169.512L530.102,196.986z"/>
	</g>
</g>
<g>
</g>
<g>
</g>
<g>
</g>
<g>
</g>
<g>
</g>
<g>
</g>
<g>
</g>
<g>
</g>
<g>
</g>
<g>
</g>
<g>
</g>
<g>
</g>
<g>
</g>
<g>
</g>
<g>
</g>
</svg>
