<?xml version="1.0" encoding="utf-8"?>
<!-- Svg Vector Icons : http://www.onlinewebfonts.com/icon -->
<!DOCTYPE svg PUBLIC "-//W3C//DTD SVG 1.1//EN" "http://www.w3.org/Graphics/SVG/1.1/DTD/svg11.dtd">
<svg version="1.1" xmlns="http://www.w3.org/2000/svg" xmlns:xlink="http://www.w3.org/1999/xlink" x="0px" y="0px" viewBox="0 0 1000 1000" enable-background="new 0 0 1000 1000" xml:space="preserve">
<metadata> Svg Vector Icons : http://www.onlinewebfonts.com/icon </metadata>
<g><path d="M990,210.3c0,38.7-31.3,70-70,70H80c-38.7,0-70-31.3-70-70l0,0c0-38.7,31.3-70,70-70H920C958.5,140.2,990,171.6,990,210.3L990,210.3L990,210.3z"/><path d="M713.4,500c0,38.7-31.3,70-70,70H80c-38.7,0-70-31.3-70-70l0,0c0-38.7,31.3-70,70-70l563.3,0C682,430,713.4,461.3,713.4,500L713.4,500L713.4,500z"/><path d="M503.4,789.7c0,38.7-31.3,70-70,70H80c-38.7,0-70-31.3-70-70l0,0c0-38.7,31.3-70,70-70h353.4C472.1,719.7,503.4,751.2,503.4,789.7L503.4,789.7L503.4,789.7z"/></g>
</svg>